<svg width="350" height="350" viewBox="0 0 350 350" fill="none" xmlns="http://www.w3.org/2000/svg">
  <g id="escudo11">
    <path id="Vector"
      d="M122.371 66.5677C108.625 94.5046 130.53 120.632 158.244 102.473C159.102 108.41 170.467 119.457 175.927 118.949C182.689 116.029 190.372 109.711 192.15 102.473C219.547 120.6 241.992 94.4411 228.023 66.5677L299.897 47.5515C275.357 64.3772 261.643 85.1711 264.024 116.187C264.627 123.902 270.849 138.918 270.373 143.648C269.897 148.378 257.928 157.045 256.024 167.426C251.928 189.744 264.849 205.808 254.976 227.681C244.531 250.856 209.166 265.301 191.007 282.063C184.848 287.745 177.165 294.063 177.292 303.238L173.102 301.841C172.88 298.476 171.832 295.46 169.832 292.73C148.911 264.094 91.672 250.919 90.5926 209.078C90.1482 191.554 101.386 178.442 90.7196 158.378C88.1164 153.49 80.4655 147.68 80.0528 143.585C79.5766 138.854 85.7989 123.87 86.4021 116.124C88.6561 86.5997 75.6718 63.1073 50.5286 48.5039L122.371 66.5042V66.5677Z"
      fill="currentColor" stroke="currentColor" />
  </g>
</svg>