<svg width="350" height="350" viewBox="0 0 350 350" fill="none" xmlns="http://www.w3.org/2000/svg">
  <g id="escudo4">
    <path id="Vector"
      d="M267.034 52.1731C278.907 78.5861 253.51 93.2213 250.081 115.031C244.017 153.762 255.541 202.524 247.89 242.303C242.398 259.192 229.573 254.43 220.969 260.747C218.144 262.811 216.684 268.652 212.588 271.51C199.763 280.43 184.81 285.7 174.302 297.891C164.207 284.907 148.365 280.081 135.984 271.51C131.54 268.43 130.27 262.589 127.635 260.716C118.777 254.43 106.174 259.097 100.682 242.271C92.9993 202.493 104.555 153.667 98.4914 114.999C95.3803 95.1895 73.6022 77.348 81.5071 52.1731C95.3485 50.8714 104.492 64.6177 118.206 64.5542C139.762 64.4272 165 53.6969 196.048 56.3001C209.858 57.4747 224.366 65.6336 234.43 64.9986C246.367 64.2685 254.716 51.9826 267.034 52.1731Z"
      fill="currentColor" stroke="currentColor" />
  </g>
</svg>