<svg width="350" height="350" viewBox="0 0 350 350" fill="none" xmlns="http://www.w3.org/2000/svg">
  <g id="escudo6">
    <path id="Vector"
      d="M99.9061 116.72C90.5409 121.927 84.9535 126.53 74.3502 120.562C62.604 100.942 86.9535 89.8311 87.2393 87.9263C87.8742 83.9263 75.0486 52.7512 91.0488 58.1799C112.16 81.45 136.51 51.5449 154.224 52.0845C162.32 52.3385 168.796 60.4974 175.812 60.2751C182.352 60.0529 187.145 51.1956 197.082 51.6083C216.225 52.3703 237.114 82.1167 264.67 56.0529C267.528 64.7514 261.178 77.9579 262.131 84.466C263.083 90.974 276.924 95.3233 277.94 106.149C279.464 122.086 264.639 129.959 253.845 116.879L247.368 123.355L251.75 203.515L271.147 194.848L277.718 205.642L214.416 281.199L201.717 277.294L203.908 266.373L195.4 264.278L175.844 298.945C158.605 291.421 156.002 256.691 138.986 262.088L147.621 281.612C142.796 282.215 139.05 281.739 134.668 279.453C130.573 277.326 76.2867 213.579 74.7946 209.198C73.2073 204.595 73.8422 199.642 73.9375 194.912L91.3346 203.515C93.7473 204.309 99.9378 197.706 99.9378 197.039V116.816L99.9061 116.72Z"
      fill="currentColor" stroke="currentColor" />
 </g>
</svg>