<svg width="350" height="350" viewBox="0 0 350 350" fill="none" xmlns="http://www.w3.org/2000/svg">
  <g id="escudo7">
    <path id="Vector"
      d="M200.295 298.945C201.883 276.627 202.962 256.31 174.295 257.135C145.374 257.96 151.469 273.231 150.041 292.723C149.787 296.469 151.977 299.993 146.294 298.945C133.469 284.183 98.4207 256.056 94.9286 237.325C87.9761 200.023 90.4841 157.007 82.103 119.324C82.3253 109.514 106.707 90.8153 115.151 84.5612C133.215 71.1959 153.564 60.7196 173.882 51.3226C208.391 66.4975 242.486 85.8311 267.439 114.72L251.756 243.802C237.566 264.786 221.121 284.437 200.263 298.977L200.295 298.945Z"
      fill="currentColor"  stroke="currentColor" />
  </g>
</svg>