<svg width="350" height="350" viewBox="0 0 350 350" fill="none" xmlns="http://www.w3.org/2000/svg">
  <g id="escudo9">
    <path id="Vector"
      d="M276.766 192.125C268.131 217.649 257.814 244.634 234.861 260.507C215.75 273.714 190.956 278.571 174.67 295.65V296.031C158.384 278.793 133.463 273.967 114.32 260.729C91.367 244.856 81.0494 217.84 72.4143 192.347C74.4461 190.696 102.986 209.459 99.5576 187.935C97.6845 176.093 87.1447 171.934 79.7478 163.839C67.4619 150.347 56.2871 130.029 53.4299 112.029C68.0333 131.997 71.7794 136.854 84.9542 140.728C89.9384 142.188 93.7162 140.156 93.1448 135.648L89.9384 110.06C89.8432 102.441 84.3193 81.2664 88.4781 76.2504C93.3353 70.3773 121.018 62.0597 129.336 60.155C144.098 56.7581 159.304 55.012 174.479 55.012V54.7898C189.686 54.7898 204.956 56.5358 219.75 59.9327C228.099 61.8375 255.75 70.1551 260.639 76.0282C264.798 81.0441 259.306 102.219 259.179 109.838L255.972 135.426C255.433 139.934 259.179 141.966 264.163 140.505C277.338 136.632 281.084 131.743 295.687 111.806C292.83 129.807 281.655 150.093 269.37 163.617C261.973 171.744 251.433 175.903 249.56 187.744C246.131 209.268 274.703 190.506 276.735 192.157L276.766 192.125Z"
      fill="currentColor" stroke="currentColor" />
  </g>
</svg>