<svg width="350" height="350" viewBox="0 0 350 350" fill="none" xmlns="http://www.w3.org/2000/svg">
  <g id="escudo5">
    <path id="Vector"
      d="M271.27 66.6177C270.762 75.5067 275.301 82.3004 281.048 88.5227C283.968 91.6974 290 89.2212 287.873 96.5863C269.333 101.761 270.095 119.952 272.127 135.762C278.413 184.778 312.35 224.937 255.015 260.176C230.634 275.16 199.364 282.906 174.094 297.256C133.68 270.271 61.5523 267.033 62.4412 205.096C62.9174 171.445 99.2672 114.491 62.6635 96.5863V92.5545C72.8858 86.5862 77.9653 78.6496 79.4256 66.7764C98.3148 67.6336 116.283 69.4114 135.141 66.1415C147.522 64.0145 167.427 53.1572 174.094 52.7127C179.649 52.3635 204.158 64.2049 215.396 66.1415C234.285 69.4114 252.349 67.7605 271.27 66.6177Z"
      fill="currentColor" stroke="currentColor" />
  </g>
</svg>