<svg width="350" height="350" viewBox="0 0 350 350" fill="none" xmlns="http://www.w3.org/2000/svg">
  <g id="escudo10">
    <path id="Vector"
      d="M99.9438 57.4248C105.785 84.9173 141.595 87.3618 163.659 95.1079C167.278 96.3778 173.85 102.06 175.119 102.06C176.389 102.06 182.961 96.3778 186.58 95.1079C206.168 88.2507 227.85 87.1713 243.216 70.6631C247.597 65.9646 248.359 60.4725 252.644 57.4566C252.549 66.2821 253.438 75.0441 251.628 83.8379C249.216 95.4889 240.358 104.124 236.009 114.695C246.581 109.997 262.01 103.616 268.01 93.0444C270.676 88.3142 269.851 80.695 274.137 78.9172C279.502 97.5206 282.74 115.711 269.438 131.934C265.851 136.315 258.771 138.41 255.375 144.791C242.422 169.331 269.248 203.903 254.803 234.888C240.676 265.206 204.993 268.031 181.659 285.809C178.897 287.904 176.231 289.619 176.294 293.587C156.294 271.745 119.849 268.92 101.404 245.65C76.3562 214.03 102.42 185.839 97.4358 154.156C94.8644 137.775 79.7848 136.029 74.3879 122.378C69.6577 110.473 68.6418 88.3142 78.5149 78.8855C78.0705 99.0762 97.5946 108.918 114.293 114.664C116.23 112.664 105.595 101.171 103.817 97.7111C99.3724 89.0443 95.2453 70.6949 95.1501 61.0122C95.0866 56.282 95.4675 57.1709 99.9755 57.3931L99.9438 57.4248Z"
      ffill="currentColor" stroke="currentColor" />
  </g>
</svg>