<svg xmlns="http://www.w3.org/2000/svg" width="352" height="352" viewBox="0 0 352 352" fill="none">
  <g id="relleno1">
    <path id="Vector" d="M247.907 65.6816C245.481 73.0256 240.979 79.9864 238.807 87.4581C226.355 130.308 252.122 159.014 290.087 173.382C252.793 193.722 217.606 218.883 193.371 254.389L175.649 287.118C161.472 247.237 126.988 213.487 92.0879 190.689C82.5408 184.462 71.2055 180.503 62.6802 172.68C99.5915 160.291 124.21 131.841 114.982 91.0023L105.594 65.7455C132.192 96.175 154.288 139.472 119.963 173.446C140.303 186.059 161.504 198.703 176.416 217.829C191.072 198.479 212.561 186.027 232.868 173.414C197.841 140.366 220.352 94.5466 247.939 65.7455L247.907 65.6816Z" fill="currentColor"/>
    <path id="Vector_2" d="M201.225 171.147L200.299 174.244L174.149 192.221C170.349 184.43 159.556 177.948 151.542 174.117L152.5 171.019C168.72 157.8 174.212 132.799 175.649 112.427L180.886 138.036C184.877 149.882 189.762 165.176 201.225 171.179V171.147Z" fill="currentColor"/>
  </g>
</svg>