<svg xmlns="http://www.w3.org/2000/svg" width="352" height="353" viewBox="0 0 352 353" fill="none">
  <g id="relleno9">
    <path id="Vector" d="M167.316 271.42C97.133 258.392 60.6367 177.673 104.413 118.442C154.959 50.0476 264.543 82.8719 267.321 168.189C266.874 172.628 265.533 169.179 265.278 167.615C262.34 150.117 260.201 140.219 249.408 125.595C215.626 79.7427 142.442 82.1694 115.78 133.801C97.8035 168.605 109.203 212.03 143.623 231.379C151.51 235.818 159.11 237.318 167.316 240.575V271.484V271.42Z" fill="curentColor"/>
    <path id="Vector_2" d="M194.935 201.716C205.44 199.992 216.169 186.422 217.286 176.076C222.938 124.669 153.075 115.185 138.291 160.239C131.234 181.696 139.887 199.226 155.469 213.562C147.2 209.922 139.217 201.876 135.066 193.861C104.317 134.599 189.028 84.0214 230.218 138.175C247.556 160.973 236.955 183.292 256.784 206.314C258.828 208.677 264.607 211.998 264.639 214.233C230.984 214.903 210.102 234.828 197.873 264.619C197.075 266.598 198.671 268.163 194.903 267.524V201.78L194.935 201.716Z" fill="currentColor"/>
  </g>
</svg>