<svg xmlns="http://www.w3.org/2000/svg" width="353" height="353" viewBox="0 0 353 353" fill="none">
  <g id="relleno12">
    <path id="Vector" d="M233.841 107.217C228.125 102.779 224.421 98.8835 224.07 98.4684H224.006C209.638 87.0693 196.227 82.0882 195.588 81.8328C222.09 96.84 227.04 109.389 223.719 118.968C285.217 139.467 238.279 219.867 237.002 221.815C237.481 220.729 220.973 225.263 231.127 183.722C233.681 173.409 233.298 164.085 231.254 155.911C227.806 141.766 212.831 133.719 200.314 139.084C198.686 139.786 197.696 140.105 197.696 140.105C197.696 140.105 165.255 161.339 196.482 194.036C227.742 226.7 188.436 275.075 188.436 275.075C188.436 275.075 201.495 271.115 216.535 258.726C216.535 258.726 252.52 236.183 270.72 245.539C264.143 239.536 252.041 233.948 252.073 210.448C253.446 206.169 255.777 193.684 256.735 188.895C258.076 182.573 258.81 176.57 258.97 170.918C258.97 170.471 259.002 170.024 258.97 169.609C259.034 167.023 259.002 164.5 258.842 162.042C258.651 161.116 258.491 160.221 258.299 159.327C257.788 156.454 257.565 153.74 257.469 151.217C256.99 129.058 272.285 121.362 276.915 119.542C260.822 124.939 244.027 115.2 233.745 107.217H233.841ZM204.05 263.196C227.838 208.021 208.329 190.875 199.324 176.697C188.947 160.317 202.613 137.455 218.802 147.609C219.249 147.896 221.899 150.163 223.974 154.57C225.315 157.38 226.146 160.381 226.625 163.446C227.934 171.94 232.595 183.499 226.816 189.502C223.655 192.79 218.387 165.809 215.8 159.104C212.735 151.089 216.215 195.536 220.941 205.052C229.85 223.06 204.05 263.228 204.05 263.228V263.196Z" fill="currentColor"/>
    <path id="Vector_2" d="M119.02 245.922C124.735 250.361 128.439 254.256 128.79 254.671H128.854C143.223 266.07 156.633 271.051 157.272 271.307C130.77 256.3 125.821 243.751 129.142 234.172C67.6439 213.673 114.581 133.272 115.859 131.325C115.38 132.41 131.888 127.876 121.734 169.417C119.179 179.731 119.563 189.054 121.606 197.229C125.055 211.374 140.03 219.42 152.546 214.056C154.175 213.353 155.165 213.034 155.165 213.034C155.165 213.034 187.606 191.8 156.378 159.104C125.118 126.439 164.424 78.065 164.424 78.065C164.424 78.065 151.365 82.0244 136.326 94.4133C136.326 94.4133 100.34 116.956 82.1403 107.6C88.7179 113.603 100.819 119.191 100.788 142.692C99.4145 146.97 97.0836 159.455 96.1257 164.245C94.7846 170.567 94.0502 176.57 93.8906 182.221C93.8906 182.668 93.8587 183.115 93.8906 183.531C93.8267 186.117 93.8587 188.639 94.0183 191.098C94.2099 192.024 94.3695 192.918 94.5611 193.812C95.072 196.686 95.2955 199.4 95.3913 201.922C95.8703 224.082 80.5757 231.777 75.9458 233.597C92.0386 228.201 108.834 237.94 119.115 245.922H119.02ZM148.811 89.9431C125.023 145.118 144.532 162.265 153.536 176.442C163.914 192.822 150.247 215.684 134.059 205.53C133.612 205.243 130.962 202.976 128.886 198.57C127.545 195.76 126.715 192.758 126.236 189.693C124.927 181.2 120.265 169.641 126.044 163.638C129.205 160.349 134.474 187.33 137.06 194.036C140.126 202.05 136.645 157.603 131.919 148.088C123.011 130.079 148.811 89.9111 148.811 89.9111V89.9431Z" fill="currentColor"/>
  </g>
</svg>