<svg xmlns="http://www.w3.org/2000/svg" width="353" height="352" viewBox="0 0 353 352" fill="none">
  <g id="relleno3">
    <path id="Vector" d="M214.314 163.356C209.365 172.392 197.615 191.295 181.745 199.533C178.84 201.066 175.71 201.066 173.028 200.012C172.933 200.012 172.837 200.012 172.805 199.916C172.262 199.757 171.751 199.565 171.24 199.278C155.371 191.04 143.621 172.105 138.671 163.069C137.011 160.035 136.915 156.459 138.384 153.33C144.483 140.334 161.182 104.477 166.036 92.3114C166.099 92.1517 166.163 92.024 166.227 91.8644C168.558 86.3724 173.89 84.5524 178.584 85.7018C178.712 85.7018 178.808 85.7018 178.967 85.7976C182.192 86.3085 185.226 88.3521 186.79 92.1198C186.854 92.2795 186.918 92.4072 186.982 92.5668C191.867 104.732 208.535 140.558 214.633 153.586C216.102 156.715 215.974 160.323 214.346 163.356H214.314Z" fill="currentColor"/>
    <path id="Vector_2" d="M245.446 221.406L189.472 259.85L179.925 266.395C178.137 267.609 175.806 267.736 173.922 266.683C173.635 266.523 173.316 266.331 173.028 266.14L163.449 259.562L107.507 221.118C104.091 218.819 102.941 214.764 104.634 211.124L115.075 188.709C118.204 181.972 128.613 180.854 132.924 186.793L135.191 189.954C143.525 201.513 153.806 211.858 165.716 220.671L172.996 226.067C175.136 227.664 178.073 227.664 180.213 226.067L187.205 220.927C199.115 212.114 209.397 201.8 217.731 190.242L219.998 187.049C224.308 181.141 234.717 182.227 237.847 188.964L248.288 211.379C249.98 214.988 248.831 219.075 245.414 221.406H245.446Z" fill="currentColor"/>
  </g>
</svg>