<svg xmlns="http://www.w3.org/2000/svg" width="353" height="353" viewBox="0 0 353 353" fill="none">
  <g id="relleno7">
    <path id="Vector" d="M193.269 199.133C195.76 196.866 205.051 207.019 205.626 208.265C209.873 217.588 185.414 261.748 181.583 273.115C177.943 270.656 177.336 266.186 174.494 262.706C170.695 258.044 163.67 255.649 160.988 251.53C159.391 249.072 147.801 222.154 147.833 220.462C150.515 216.247 154.123 214.938 157.188 210.404C166.512 196.514 167.31 174.674 168.619 158.198C170.695 131.792 182.541 117.487 179.028 79.6816L188.927 104.715C190.938 127.928 189.821 150.631 191.992 173.812C192.726 181.858 192.439 190.927 193.333 199.101L193.269 199.133Z" fill="currentColor"/>
    <path id="Vector_2" d="M254.001 222.506C254.639 224.358 251.925 235.086 250.584 237.385C246.657 244.122 234.364 249.55 227.211 251.945L232.288 252.935L210.288 270.369C211.086 265.228 211.661 260.598 215.652 256.894L211.948 256.064C215.716 250.157 208.532 232.404 209.65 228.732C210.512 225.89 218.43 220.526 220.634 217.141C226.828 207.626 225.806 193.736 227.722 183.199C230.979 165.542 235.098 147.98 238.387 130.323C241.101 134.953 245.156 142.648 246.114 147.757C249.562 165.797 243.943 203.954 250.456 218.77C251.318 220.749 253.809 221.803 254.033 222.41L254.001 222.506Z" fill="currentColor"/>
    <path id="Vector_3" d="M122.256 130.068C124.364 153.057 125.545 179.144 130.143 201.751C131.612 208.967 137.998 219.568 138.413 224.166C138.764 228.317 135.986 231.318 135.763 234.99C135.539 238.918 138.477 234.224 138.541 235.98C137.072 247.379 140.169 260.534 132.474 270.114C127.748 262.61 127.365 260.439 130.111 252.105L125.034 263.217L99.0432 222.889C104.248 217.397 106.132 215.098 107.728 207.562C112.294 186.265 108.175 148.715 119.51 132.079C120.149 131.121 119.127 129.621 122.225 130.068H122.256Z" fill="currentColor"/>
  </g>
</svg>