<svg xmlns="http://www.w3.org/2000/svg" width="353" height="353" viewBox="0 0 353 353" fill="none">
  <g id="relleno6">
    <path id="Vector" d="M180.485 60.7789C147.885 85.6207 146.096 117.838 182.848 87.9835C202.166 110.75 216.854 139.072 225.699 167.617C229.498 183.104 241.536 190.799 250.508 204.082C238.471 227.934 208.712 256.384 184.03 266.761C175.089 251.115 164.488 236.746 152.387 223.4C163.275 198.941 169.31 193.864 184.445 219.696L171.449 215.896C167.873 225.092 173.684 243.42 185.562 240.355C189.362 239.365 205.359 227.838 204.816 224.23C199.26 215.896 184.668 196.77 175.281 190.863C175.217 190.863 175.153 190.799 175.089 190.767C170.395 188.723 168.959 182.816 172.279 178.921C176.079 174.451 179.751 170.779 181.475 170.044C187.063 167.681 192.842 175.728 198.494 175.217C196.163 172.215 189.075 158.166 185.147 158.549C104.938 210.18 152.802 212.416 176.366 292.082C165.159 254.18 130.674 224.23 102.288 196.898L153.536 133.452L149.609 166.149C166.691 148.204 201.655 142.361 171.417 113.943C169.15 111.803 144.085 133.261 138.944 132.335C128.247 106.343 125.182 100.628 129.684 98.0415C134.187 95.4552 165.925 66.2709 180.453 60.7789H180.485Z" fill="currentColor"/>
  </g>
</svg>