<svg xmlns="http://www.w3.org/2000/svg" width="352" height="353" viewBox="0 0 352 353" fill="none">
  <g id="relleno11">
    <path id="Vector" d="M185.516 120.852C206.59 124.396 226.067 131.676 242.575 145.374L266.076 126.822L250.398 153.293C282.009 187.841 284.212 241.101 254.517 277.533L243.022 288.389C265.788 254.064 260.807 207.957 231.974 178.901L212.752 188.863L219.841 169.609C218.691 165.65 191.806 155.879 186.314 157.316L175.969 177.336L167.316 158.593C162.494 152.75 138.259 166.735 131.969 168.715L139.185 187.426L121.879 177.975C98.474 200.454 90.236 233.374 98.7614 264.665L108.181 288.421C69.2259 252.851 67.0866 192.982 101.699 153.58L82.9559 122.544L110.895 145.534C125.742 132.41 144.932 123.693 165.017 122.384L175.969 64.814L185.548 120.883L185.516 120.852Z" fill="currentColor"/>
    <path id="Vector_2" d="M151.223 216.738C189.028 181.774 238.68 243.049 197.617 272.488C160.961 298.767 119.388 246.178 151.223 216.738Z" fill="currentColor"/>
  </g>
</svg>