<?xml version="1.0" standalone="no"?>
<!DOCTYPE svg PUBLIC "-//W3C//DTD SVG 20010904//EN"
 "http://www.w3.org/TR/2001/REC-SVG-20010904/DTD/svg10.dtd">
<svg version="1.0" xmlns="http://www.w3.org/2000/svg"
 width="249.000000pt" height="220.000000pt" viewBox="0 0 249.000000 220.000000"
 preserveAspectRatio="xMidYMid meet">

<g id="relleno13" transform="translate(0.000000,220.000000) scale(0.100000,-0.100000)"
fill="currentcolor" stroke="none">
<path d="M1645 2190 c3 -5 27 -10 53 -9 38 1 42 2 22 9 -37 12 -82 12 -75 0z"/>
<path d="M1470 2174 c0 -8 63 -64 73 -64 9 0 167 -154 167 -163 0 -3 12 -18
28 -34 82 -87 122 -142 122 -167 0 -8 4 -16 9 -18 15 -5 81 -116 81 -136 0
-10 4 -22 9 -27 38 -43 91 -278 91 -405 0 -86 -30 -218 -65 -288 -18 -37 -36
-75 -39 -84 -9 -29 -25 -21 -83 37 -30 30 -58 55 -62 55 -4 0 -39 30 -79 67
-39 38 -93 87 -119 110 -26 23 -71 64 -100 90 -28 26 -99 90 -157 142 -58 52
-106 98 -106 102 0 5 -17 17 -37 28 -21 11 -48 35 -61 54 -12 18 -33 40 -47
47 l-24 13 77 76 c43 42 102 99 132 127 30 28 68 65 84 83 l28 32 -49 57 c-56
63 -80 72 -120 44 -47 -31 -132 -46 -242 -39 l-100 5 -41 -44 c-22 -24 -42
-44 -44 -44 -2 0 -67 -62 -144 -137 -77 -76 -153 -150 -169 -164 -15 -15 -47
-48 -71 -74 l-43 -47 33 -36 c18 -20 44 -49 58 -64 13 -16 29 -28 34 -28 5 0
40 -32 79 -70 38 -38 77 -70 86 -70 9 1 60 43 114 95 54 52 107 95 116 95 15
0 152 -139 174 -176 4 -8 14 -14 22 -14 7 0 28 -19 46 -42 18 -24 72 -82 119
-129 47 -47 158 -162 248 -254 l163 -168 -39 -22 c-146 -83 -334 -87 -521 -11
-36 14 -70 26 -77 26 -6 0 -18 7 -25 17 -8 9 -28 22 -45 29 -38 16 -144 111
-144 129 0 7 -6 15 -14 18 -7 3 -24 26 -36 52 -12 26 -29 49 -36 52 -20 7 -59
-21 -80 -57 -10 -16 -32 -36 -49 -44 -16 -8 -40 -24 -53 -36 -20 -19 -24 -20
-44 -5 -36 24 -73 19 -102 -16 -28 -33 -32 -59 -14 -88 9 -15 9 -23 -1 -35 -8
-9 -19 -16 -26 -16 -7 0 -29 -18 -50 -41 -20 -22 -53 -47 -72 -56 -33 -13 -94
-56 -132 -92 -9 -8 -30 -20 -48 -28 l-33 -13 0 -73 c0 -66 2 -76 26 -96 29
-26 66 -41 97 -41 28 0 134 79 142 105 3 11 35 45 69 75 35 30 81 79 102 108
42 57 43 57 91 40 27 -10 38 -9 68 5 30 14 35 21 35 52 0 19 -5 44 -12 54 -9
15 -9 23 1 35 22 26 36 19 82 -40 61 -79 185 -197 217 -208 15 -5 40 -20 56
-33 34 -28 68 -47 127 -68 131 -48 139 -49 329 -49 176 1 188 2 254 27 37 15
76 27 85 27 14 0 44 16 93 52 15 11 25 5 74 -42 31 -30 66 -66 78 -79 69 -80
110 -121 121 -121 6 0 20 -9 30 -20 l18 -20 22 20 c12 11 24 20 28 20 4 0 50
43 103 95 53 52 100 95 105 95 5 0 9 10 9 23 0 22 -46 77 -64 77 -5 0 -27 21
-49 46 -22 25 -57 57 -78 70 -21 13 -49 39 -64 58 l-27 35 25 43 c79 132 128
264 148 392 16 103 5 254 -26 361 -15 50 -30 104 -34 121 -5 18 -16 47 -26 65
-10 19 -36 67 -56 108 -41 80 -68 116 -141 195 -27 28 -48 56 -48 63 0 6 -17
25 -37 40 -21 15 -40 31 -43 34 -5 6 -111 81 -158 111 -80 52 -322 129 -322
102z m-730 -1404 c0 -5 -5 -10 -11 -10 -5 0 -7 5 -4 10 3 6 8 10 11 10 2 0 4
-4 4 -10z"/>
<path d="M7 143 c-10 -10 -8 -86 3 -103 7 -11 10 3 10 48 0 62 -1 67 -13 55z"/>
</g>
</svg>
