<svg xmlns="http://www.w3.org/2000/svg" width="353" height="352" viewBox="0 0 353 352" fill="none">
  <g id="relleno2">
    <path id="Vector" d="M248.401 149.593C239.652 146.688 198.781 183.918 197.728 186.952C191.342 205.631 184.062 237.88 183.008 257.932C181.89 279.134 172.662 267.959 168.575 255.155C159.379 226.449 182.146 187.782 150.024 169.294C154.526 157.767 160.337 143.942 174.355 141.93C182.465 140.78 198.781 152.275 196.993 139.088C172.503 105.721 151.652 150.679 141.85 152.02C137.922 152.563 121.957 149.402 112.921 149.114C108.674 148.987 98.8078 152.627 102.671 143.399C103.502 141.419 126.427 111.596 128.663 109.297C136.294 101.474 171.736 80.9432 182.146 81.4541C194.95 82.0607 259.577 137.14 248.401 149.625V149.593Z" fill="currentColor"/>
  </g>
</svg>