<svg xmlns="http://www.w3.org/2000/svg" width="352" height="353" viewBox="0 0 352 353" fill="none">
  <g id="relleno56">
    <path id="Vector" d="M196.915 123.554C166.9 133.069 159.94 187.127 195.414 199.42C180.694 191.501 175.554 186.169 174.308 168.799C173.829 162.062 178.363 149.705 189.028 144.5C193.626 142.265 205.696 143.478 210.134 146.192C211.667 147.15 226.61 173.716 228.366 177.42C237.977 197.887 242.128 220.27 232.996 241.823C232.102 243.931 229.516 248.944 227.568 250.221C226.993 238.726 214.381 213.661 204.387 206.987C213.423 225.124 217.478 257.597 201.225 269.762C177.565 287.484 143.911 275.286 127.179 253.861C103.647 223.719 118.079 190.064 131.234 159.06C143.623 129.94 159.365 102.256 175.138 74.9239C176.703 73.5829 177.821 76.4885 178.363 77.5742C183.089 86.8339 193.275 109.728 196.308 119.307C196.755 120.712 197.394 122.085 196.883 123.586L196.915 123.554Z" fill="currentColor"/>
  </g>
</svg>