<svg xmlns="http://www.w3.org/2000/svg" width="352" height="353" viewBox="0 0 352 353" fill="none">
  <g id="relleno8">
    <path id="Vector" d="M256.433 108.306L234.305 165.493L246.056 232.834L211.22 188.387C207.931 192.57 201.225 196.657 199.022 201.35C190.497 219.391 184.781 254.355 178.012 275.333C177.406 277.217 179.098 279.484 175.649 278.813L154.224 202.34L141.516 188.387L106.68 232.834L118.462 165.461L96.3027 108.306L176.895 186.79L256.401 108.306H256.433Z" fill="currentColor"/>
    <path id="Vector_2" d="M177.853 74.2041L198.735 140.236C198.99 144.674 177.533 164.822 175.841 164.535L153.139 141.705C161.76 121.589 165.879 95.8209 174.723 76.2796C175.522 74.5235 174.021 73.5975 177.821 74.2041H177.853Z" fill="currentColor"/>
  </g>
</svg>