<svg xmlns="http://www.w3.org/2000/svg" width="353" height="353" viewBox="0 0 353 353" fill="none">
  <g id="relleno105">
    <path id="Vector" d="M175.664 188.274C203.826 188.657 212.799 205.26 215.162 220.108C216.056 225.664 222.314 228.921 228.381 227.101C250.317 220.523 272.668 243.034 275.254 253.762C265.196 208.134 254.053 228.857 249.71 211.136C248.529 206.378 243.26 203.089 237.832 204.239C217.365 208.549 179.496 165.827 176.143 162.027H175.887C172.439 165.922 133.101 209.635 112.761 205.867C107.333 204.845 101.969 208.294 100.628 213.083C95.6787 230.932 89.1011 210.433 77.5104 256.317C80.448 245.524 99.7019 222.535 121.446 228.474C127.449 230.134 133.771 226.718 134.825 221.162C137.635 206.25 147.054 189.423 175.249 188.305" fill="currentColor"/>
    <path id="Vector_2" d="M149.066 114.611C160.337 105.447 167.266 94.0155 171.258 85.586C174.578 78.5932 175.856 73.6121 175.856 73.6121C175.856 73.6121 177.101 78.5613 180.39 85.4902C184.381 93.9517 191.31 105.383 202.613 114.611C202.39 114.93 202.198 115.249 201.943 115.568C200.633 117.293 199.324 119.017 198.079 120.613C194.918 124.669 190.064 127.446 184.636 128.819C179.815 120.134 176.654 110.875 176.175 101.168V98.6454L175.887 95.3885L175.6 98.6454V101.168C175.057 110.843 171.928 120.103 167.075 128.788C161.615 127.415 156.761 124.669 153.632 120.613C152.387 118.985 151.078 117.293 149.8 115.6C149.545 115.281 149.29 114.93 149.098 114.611H149.066Z" fill="currentColor"/>
  </g>
</svg>